<?xml version="1.0" encoding="UTF-8" standalone="no"?>
<!DOCTYPE svg PUBLIC "-//W3C//DTD SVG 1.1//EN"
 "http://www.w3.org/Graphics/SVG/1.1/DTD/svg11.dtd">
<!-- Generated by graphviz version 2.38.0 (20140413.2041)
 -->
<!-- Title: G Pages: 1 -->
<svg width="632pt" height="1458pt"
 viewBox="0.00 0.00 631.58 1458.00" xmlns="http://www.w3.org/2000/svg" xmlns:xlink="http://www.w3.org/1999/xlink">
<g id="graph0" class="graph" transform="scale(1 1) rotate(0) translate(4 1454)">
<title>G</title>
<polygon fill="white" stroke="none" points="-4,4 -4,-1454 627.582,-1454 627.582,4 -4,4"/>
<g id="clust1" class="cluster"><title>cluster_Global</title>
<path fill="none" stroke="gray" d="M249.582,-8C249.582,-8 603.582,-8 603.582,-8 609.582,-8 615.582,-14 615.582,-20 615.582,-20 615.582,-1430 615.582,-1430 615.582,-1436 609.582,-1442 603.582,-1442 603.582,-1442 249.582,-1442 249.582,-1442 243.582,-1442 237.582,-1436 237.582,-1430 237.582,-1430 237.582,-20 237.582,-20 237.582,-14 243.582,-8 249.582,-8"/>
<text text-anchor="middle" x="426.582" y="-1429.2" font-family="Times,serif" font-size="11.00" fill="gray">Global</text>
</g>
<g id="clust2" class="cluster"><title>cluster_\Elector</title>
<path fill="none" stroke="gray" d="M257.582,-492C257.582,-492 595.582,-492 595.582,-492 601.582,-492 607.582,-498 607.582,-504 607.582,-504 607.582,-1402 607.582,-1402 607.582,-1408 601.582,-1414 595.582,-1414 595.582,-1414 257.582,-1414 257.582,-1414 251.582,-1414 245.582,-1408 245.582,-1402 245.582,-1402 245.582,-504 245.582,-504 245.582,-498 251.582,-492 257.582,-492"/>
<text text-anchor="middle" x="426.582" y="-1401.2" font-family="Times,serif" font-size="11.00" fill="gray">Elector</text>
</g>
<g id="clust3" class="cluster"><title>cluster_\Elector\Forms</title>
<path fill="none" stroke="gray" d="M265.582,-776C265.582,-776 587.582,-776 587.582,-776 593.582,-776 599.582,-782 599.582,-788 599.582,-788 599.582,-1374 599.582,-1374 599.582,-1380 593.582,-1386 587.582,-1386 587.582,-1386 265.582,-1386 265.582,-1386 259.582,-1386 253.582,-1380 253.582,-1374 253.582,-1374 253.582,-788 253.582,-788 253.582,-782 259.582,-776 265.582,-776"/>
<text text-anchor="middle" x="426.582" y="-1373.2" font-family="Times,serif" font-size="11.00" fill="gray">Forms</text>
</g>
<g id="clust4" class="cluster"><title>cluster_\Elector\Forms\Candidates</title>
<path fill="none" stroke="gray" d="M456.582,-918C456.582,-918 579.582,-918 579.582,-918 585.582,-918 591.582,-924 591.582,-930 591.582,-930 591.582,-1032 591.582,-1032 591.582,-1038 585.582,-1044 579.582,-1044 579.582,-1044 456.582,-1044 456.582,-1044 450.582,-1044 444.582,-1038 444.582,-1032 444.582,-1032 444.582,-930 444.582,-930 444.582,-924 450.582,-918 456.582,-918"/>
<text text-anchor="middle" x="518.082" y="-1031.2" font-family="Times,serif" font-size="11.00" fill="gray">Candidates</text>
</g>
<g id="clust5" class="cluster"><title>cluster_\Elector\Forms\Elements</title>
<path fill="none" stroke="gray" d="M273.582,-1052C273.582,-1052 554.082,-1052 554.082,-1052 560.082,-1052 566.082,-1058 566.082,-1064 566.082,-1064 566.082,-1346 566.082,-1346 566.082,-1352 560.082,-1358 554.082,-1358 554.082,-1358 273.582,-1358 273.582,-1358 267.582,-1358 261.582,-1352 261.582,-1346 261.582,-1346 261.582,-1064 261.582,-1064 261.582,-1058 267.582,-1052 273.582,-1052"/>
<text text-anchor="middle" x="413.832" y="-1345.2" font-family="Times,serif" font-size="11.00" fill="gray">Elements</text>
</g>
<g id="clust6" class="cluster"><title>cluster_\Elector\Forms\Elements\Blank</title>
<path fill="none" stroke="gray" d="M490.082,-1106C490.082,-1106 546.082,-1106 546.082,-1106 552.082,-1106 558.082,-1112 558.082,-1118 558.082,-1118 558.082,-1220 558.082,-1220 558.082,-1226 552.082,-1232 546.082,-1232 546.082,-1232 490.082,-1232 490.082,-1232 484.082,-1232 478.082,-1226 478.082,-1220 478.082,-1220 478.082,-1118 478.082,-1118 478.082,-1112 484.082,-1106 490.082,-1106"/>
<text text-anchor="middle" x="518.082" y="-1219.2" font-family="Times,serif" font-size="11.00" fill="gray">Blank</text>
</g>
<g id="clust7" class="cluster"><title>cluster_\Elector\Forms\Voters</title>
<path fill="none" stroke="gray" d="M470.082,-784C470.082,-784 566.082,-784 566.082,-784 572.082,-784 578.082,-790 578.082,-796 578.082,-796 578.082,-898 578.082,-898 578.082,-904 572.082,-910 566.082,-910 566.082,-910 470.082,-910 470.082,-910 464.082,-910 458.082,-904 458.082,-898 458.082,-898 458.082,-796 458.082,-796 458.082,-790 464.082,-784 470.082,-784"/>
<text text-anchor="middle" x="518.082" y="-897.2" font-family="Times,serif" font-size="11.00" fill="gray">Voters</text>
</g>
<g id="clust8" class="cluster"><title>cluster_\Elector\library</title>
<path fill="none" stroke="gray" d="M475.582,-500C475.582,-500 560.582,-500 560.582,-500 566.582,-500 572.582,-506 572.582,-512 572.582,-512 572.582,-756 572.582,-756 572.582,-762 566.582,-768 560.582,-768 560.582,-768 475.582,-768 475.582,-768 469.582,-768 463.582,-762 463.582,-756 463.582,-756 463.582,-512 463.582,-512 463.582,-506 469.582,-500 475.582,-500"/>
<text text-anchor="middle" x="518.082" y="-755.2" font-family="Times,serif" font-size="11.00" fill="gray">library</text>
</g>
<g id="clust9" class="cluster"><title>cluster_\Elector\library\Regions</title>
<path fill="none" stroke="gray" d="M490.082,-668C490.082,-668 546.082,-668 546.082,-668 552.082,-668 558.082,-674 558.082,-680 558.082,-680 558.082,-728 558.082,-728 558.082,-734 552.082,-740 546.082,-740 546.082,-740 490.082,-740 490.082,-740 484.082,-740 478.082,-734 478.082,-728 478.082,-728 478.082,-680 478.082,-680 478.082,-674 484.082,-668 490.082,-668"/>
<text text-anchor="middle" x="518.082" y="-727.2" font-family="Times,serif" font-size="11.00" fill="gray">Regions</text>
</g>
<g id="clust10" class="cluster"><title>cluster_\Elector\library\Cities</title>
<path fill="none" stroke="gray" d="M493.582,-588C493.582,-588 542.582,-588 542.582,-588 548.582,-588 554.582,-594 554.582,-600 554.582,-600 554.582,-648 554.582,-648 554.582,-654 548.582,-660 542.582,-660 542.582,-660 493.582,-660 493.582,-660 487.582,-660 481.582,-654 481.582,-648 481.582,-648 481.582,-600 481.582,-600 481.582,-594 487.582,-588 493.582,-588"/>
<text text-anchor="middle" x="518.082" y="-647.2" font-family="Times,serif" font-size="11.00" fill="gray">Cities</text>
</g>
<g id="clust11" class="cluster"><title>cluster_\Elector\library\Countries</title>
<path fill="none" stroke="gray" d="M483.582,-508C483.582,-508 552.582,-508 552.582,-508 558.582,-508 564.582,-514 564.582,-520 564.582,-520 564.582,-568 564.582,-568 564.582,-574 558.582,-580 552.582,-580 552.582,-580 483.582,-580 483.582,-580 477.582,-580 471.582,-574 471.582,-568 471.582,-568 471.582,-520 471.582,-520 471.582,-514 477.582,-508 483.582,-508"/>
<text text-anchor="middle" x="518.082" y="-567.2" font-family="Times,serif" font-size="11.00" fill="gray">Countries</text>
</g>
<!-- \\Elector\\Forms\\Candidates\\CandidateRegister -->
<g id="node1" class="node"><title>\\Elector\\Forms\\Candidates\\CandidateRegister</title>
<polygon fill="none" stroke="black" points="583.582,-1016 452.582,-1016 452.582,-980 583.582,-980 583.582,-1016"/>
<text text-anchor="middle" x="518.082" y="-995.2" font-family="Courier,monospace" font-size="11.00">CandidateRegister</text>
</g>
<!-- \\Elector\\Forms\\ElectorForm -->
<g id="node11" class="node"><title>\\Elector\\Forms\\ElectorForm</title>
<polygon fill="none" stroke="black" points="370.582,-882 279.582,-882 279.582,-846 370.582,-846 370.582,-882"/>
<text text-anchor="middle" x="325.082" y="-861.2" font-family="Courier,monospace" font-size="11.00">ElectorForm</text>
</g>
<!-- \\Elector\\Forms\\Candidates\\CandidateRegister&#45;&gt;\\Elector\\Forms\\ElectorForm -->
<g id="edge3" class="edge"><title>\\Elector\\Forms\\Candidates\\CandidateRegister&#45;&gt;\\Elector\\Forms\\ElectorForm</title>
<path fill="none" stroke="black" d="M461.807,-979.945C455.838,-977.258 449.979,-974.275 444.582,-971 407.539,-948.518 371.548,-913.593 349.138,-889.806"/>
<polygon fill="none" stroke="black" points="351.446,-887.147 342.077,-882.2 346.316,-891.91 351.446,-887.147"/>
</g>
<!-- \\Elector\\Forms\\Candidates\\CandidateLogin -->
<g id="node2" class="node"><title>\\Elector\\Forms\\Candidates\\CandidateLogin</title>
<polygon fill="none" stroke="black" points="573.582,-962 462.582,-962 462.582,-926 573.582,-926 573.582,-962"/>
<text text-anchor="middle" x="518.082" y="-941.2" font-family="Courier,monospace" font-size="11.00">CandidateLogin</text>
</g>
<!-- \\Phalcon\\Forms\\Form -->
<g id="node27" class="node"><title>\\Phalcon\\Forms\\Form</title>
<ellipse fill="none" stroke="black" cx="98.7912" cy="-420" rx="89.0842" ry="18"/>
<text text-anchor="middle" x="98.7912" y="-416.3" font-family="Times,serif" font-size="14.00" fill="gray">\Phalcon\Forms\Form</text>
</g>
<!-- \\Elector\\Forms\\Candidates\\CandidateLogin&#45;&gt;\\Phalcon\\Forms\\Form -->
<g id="edge16" class="edge"><title>\\Elector\\Forms\\Candidates\\CandidateLogin&#45;&gt;\\Phalcon\\Forms\\Form</title>
<path fill="none" stroke="black" d="M462.344,-928.958C455.535,-925.057 449.315,-920.155 444.582,-914 313.392,-743.385 523.457,-594.957 380.582,-434 363.981,-415.297 346.924,-433.822 326.082,-420"/>
</g>
<!-- \\Elector\\Forms\\Elements\\Blank\\Regions -->
<g id="node3" class="node"><title>\\Elector\\Forms\\Elements\\Blank\\Regions</title>
<polygon fill="none" stroke="black" points="550.082,-1204 486.082,-1204 486.082,-1168 550.082,-1168 550.082,-1204"/>
<text text-anchor="middle" x="518.082" y="-1183.2" font-family="Courier,monospace" font-size="11.00">Regions</text>
</g>
<!-- \\Elector\\Forms\\Elements\\ElectorElement -->
<g id="node7" class="node"><title>\\Elector\\Forms\\Elements\\ElectorElement</title>
<polygon fill="none" stroke="black" points="380.582,-1177 269.582,-1177 269.582,-1141 380.582,-1141 380.582,-1177"/>
<text text-anchor="start" x="291.082" y="-1162.2" font-family="Courier,monospace" font-size="11.00">«abstract»</text>
<text text-anchor="start" x="277.582" y="-1150.2" font-family="Courier,monospace" font-size="11.00">ElectorElement</text>
</g>
<!-- \\Elector\\Forms\\Elements\\Blank\\Regions&#45;&gt;\\Elector\\Forms\\Elements\\ElectorElement -->
<g id="edge6" class="edge"><title>\\Elector\\Forms\\Elements\\Blank\\Regions&#45;&gt;\\Elector\\Forms\\Elements\\ElectorElement</title>
<path fill="none" stroke="black" d="M485.97,-1181.6C460.312,-1177.97 423.046,-1172.71 390.946,-1168.17"/>
<polygon fill="none" stroke="black" points="391.118,-1164.66 380.727,-1166.72 390.138,-1171.59 391.118,-1164.66"/>
</g>
<!-- \\Elector\\Forms\\Elements\\Blank\\Cities -->
<g id="node4" class="node"><title>\\Elector\\Forms\\Elements\\Blank\\Cities</title>
<polygon fill="none" stroke="black" points="546.582,-1150 489.582,-1150 489.582,-1114 546.582,-1114 546.582,-1150"/>
<text text-anchor="middle" x="518.082" y="-1129.2" font-family="Courier,monospace" font-size="11.00">Cities</text>
</g>
<!-- \\Elector\\Forms\\Elements\\Blank\\Cities&#45;&gt;\\Elector\\Forms\\Elements\\ElectorElement -->
<g id="edge14" class="edge"><title>\\Elector\\Forms\\Elements\\Blank\\Cities&#45;&gt;\\Elector\\Forms\\Elements\\ElectorElement</title>
<path fill="none" stroke="black" d="M489.309,-1135.93C463.618,-1139.56 424.454,-1145.09 390.928,-1149.83"/>
<polygon fill="none" stroke="black" points="390.137,-1146.41 380.726,-1151.28 391.117,-1153.34 390.137,-1146.41"/>
</g>
<!-- \\Elector\\Forms\\Elements\\Countries -->
<g id="node5" class="node"><title>\\Elector\\Forms\\Elements\\Countries</title>
<polygon fill="none" stroke="black" points="556.582,-1096 479.582,-1096 479.582,-1060 556.582,-1060 556.582,-1096"/>
<text text-anchor="middle" x="518.082" y="-1075.2" font-family="Courier,monospace" font-size="11.00">Countries</text>
</g>
<!-- \\Elector\\Forms\\Elements\\Countries&#45;&gt;\\Elector\\Forms\\Elements\\ElectorElement -->
<g id="edge7" class="edge"><title>\\Elector\\Forms\\Elements\\Countries&#45;&gt;\\Elector\\Forms\\Elements\\ElectorElement</title>
<path fill="none" stroke="black" d="M479.342,-1089.06C468.007,-1092.77 455.647,-1097.19 444.582,-1102 417.405,-1113.81 410.922,-1121.69 381.108,-1136.52"/>
<polygon fill="none" stroke="black" points="379.526,-1133.4 372.043,-1140.9 382.57,-1139.7 379.526,-1133.4"/>
</g>
<!-- \\Elector\\Forms\\Elements\\Email -->
<g id="node6" class="node"><title>\\Elector\\Forms\\Elements\\Email</title>
<polygon fill="none" stroke="black" points="545.082,-1330 491.082,-1330 491.082,-1294 545.082,-1294 545.082,-1330"/>
<text text-anchor="middle" x="518.082" y="-1309.2" font-family="Courier,monospace" font-size="11.00">Email</text>
</g>
<!-- \\Phalcon\\Forms\\Element -->
<g id="node26" class="node"><title>\\Phalcon\\Forms\\Element</title>
<ellipse fill="none" stroke="black" cx="98.7912" cy="-1222" rx="90.9839" ry="18"/>
<text text-anchor="middle" x="98.7912" y="-1218.3" font-family="Times,serif" font-size="14.00" fill="gray">\Phalcon\Formslement</text>
</g>
<!-- \\Elector\\Forms\\Elements\\Email&#45;&gt;\\Phalcon\\Forms\\Element -->
<g id="edge9" class="edge"><title>\\Elector\\Forms\\Elements\\Email&#45;&gt;\\Phalcon\\Forms\\Element</title>
<path fill="none" stroke="black" d="M490.832,-1308.21C454.025,-1302.91 384.979,-1293.05 326.082,-1285"/>
</g>
<!-- \\Elector\\Forms\\Elements\\ElectorElement&#45;&gt;\\Phalcon\\Forms\\Element -->
<g id="edge10" class="edge"><title>\\Elector\\Forms\\Elements\\ElectorElement&#45;&gt;\\Phalcon\\Forms\\Element</title>
<path fill="none" stroke="black" d="M269.501,-1174.33C236.928,-1183.48 195.465,-1195.13 161.677,-1204.62"/>
<polygon fill="none" stroke="black" points="160.592,-1201.29 151.911,-1207.36 162.485,-1208.03 160.592,-1201.29"/>
</g>
<!-- \\Elector\\Forms\\Elements\\Image -->
<g id="node8" class="node"><title>\\Elector\\Forms\\Elements\\Image</title>
<polygon fill="none" stroke="black" points="545.082,-1276 491.082,-1276 491.082,-1240 545.082,-1240 545.082,-1276"/>
<text text-anchor="middle" x="518.082" y="-1255.2" font-family="Courier,monospace" font-size="11.00">Image</text>
</g>
<!-- \\Elector\\Forms\\Elements\\Image&#45;&gt;\\Phalcon\\Forms\\Element -->
<g id="edge11" class="edge"><title>\\Elector\\Forms\\Elements\\Image&#45;&gt;\\Phalcon\\Forms\\Element</title>
<path fill="none" stroke="black" d="M490.832,-1266.33C454.025,-1276.95 384.979,-1293.05 326.082,-1285"/>
<path fill="none" stroke="black" d="M324.082,-1285C263.787,-1276.76 196.89,-1256.45 151.979,-1241.09"/>
<polygon fill="none" stroke="black" points="153.054,-1237.76 142.459,-1237.8 150.766,-1244.38 153.054,-1237.76"/>
</g>
<!-- \\Elector\\Forms\\Voters\\VoterRegister -->
<g id="node9" class="node"><title>\\Elector\\Forms\\Voters\\VoterRegister</title>
<polygon fill="none" stroke="black" points="570.082,-882 466.082,-882 466.082,-846 570.082,-846 570.082,-882"/>
<text text-anchor="middle" x="518.082" y="-861.2" font-family="Courier,monospace" font-size="11.00">VoterRegister</text>
</g>
<!-- \\Elector\\Forms\\Voters\\VoterRegister&#45;&gt;\\Elector\\Forms\\ElectorForm -->
<g id="edge12" class="edge"><title>\\Elector\\Forms\\Voters\\VoterRegister&#45;&gt;\\Elector\\Forms\\ElectorForm</title>
<path fill="none" stroke="black" d="M465.898,-864C439.657,-864 407.679,-864 380.932,-864"/>
<polygon fill="none" stroke="black" points="380.583,-860.5 370.583,-864 380.583,-867.5 380.583,-860.5"/>
</g>
<!-- \\Elector\\Forms\\Voters\\VoterLogin -->
<g id="node10" class="node"><title>\\Elector\\Forms\\Voters\\VoterLogin</title>
<polygon fill="none" stroke="black" points="560.082,-828 476.082,-828 476.082,-792 560.082,-792 560.082,-828"/>
<text text-anchor="middle" x="518.082" y="-807.2" font-family="Courier,monospace" font-size="11.00">VoterLogin</text>
</g>
<!-- \\Elector\\Forms\\Voters\\VoterLogin&#45;&gt;\\Phalcon\\Forms\\Form -->
<g id="edge13" class="edge"><title>\\Elector\\Forms\\Voters\\VoterLogin&#45;&gt;\\Phalcon\\Forms\\Form</title>
<path fill="none" stroke="black" d="M489.644,-791.745C474.062,-779.945 455.538,-763.225 444.582,-744 374.931,-621.769 477.652,-535.83 380.582,-434 363.327,-415.898 346.924,-433.822 326.082,-420"/>
<path fill="none" stroke="black" d="M324.082,-420C276.063,-388.153 208.617,-393.123 160.248,-402.988"/>
<polygon fill="none" stroke="black" points="159.263,-399.62 150.229,-405.156 160.743,-406.462 159.263,-399.62"/>
</g>
<!-- \\Elector\\Forms\\ElectorForm&#45;&gt;\\Phalcon\\Forms\\Form -->
<g id="edge15" class="edge"><title>\\Elector\\Forms\\ElectorForm&#45;&gt;\\Phalcon\\Forms\\Form</title>
<path fill="none" stroke="black" d="M279.488,-862.774C264.04,-860.013 248.002,-854.09 237.582,-842 122.386,-708.338 311.414,-581.826 197.582,-447 193.407,-442.054 188.415,-437.972 182.927,-434.607"/>
<polygon fill="none" stroke="black" points="184.422,-431.439 173.941,-429.89 181.168,-437.637 184.422,-431.439"/>
</g>
<!-- \\Elector\\library\\Regions\\Regions -->
<g id="node12" class="node"><title>\\Elector\\library\\Regions\\Regions</title>
<polygon fill="none" stroke="black" points="550.082,-712 486.082,-712 486.082,-676 550.082,-676 550.082,-712"/>
<text text-anchor="middle" x="518.082" y="-691.2" font-family="Courier,monospace" font-size="11.00">Regions</text>
</g>
<!-- \\Elector\\library\\Cities\\Cities -->
<g id="node13" class="node"><title>\\Elector\\library\\Cities\\Cities</title>
<polygon fill="none" stroke="black" points="546.582,-632 489.582,-632 489.582,-596 546.582,-596 546.582,-632"/>
<text text-anchor="middle" x="518.082" y="-611.2" font-family="Courier,monospace" font-size="11.00">Cities</text>
</g>
<!-- \\Elector\\library\\Countries\\Countries -->
<g id="node14" class="node"><title>\\Elector\\library\\Countries\\Countries</title>
<polygon fill="none" stroke="black" points="556.582,-552 479.582,-552 479.582,-516 556.582,-516 556.582,-552"/>
<text text-anchor="middle" x="518.082" y="-531.2" font-family="Courier,monospace" font-size="11.00">Countries</text>
</g>
<!-- \\ControllerBase -->
<g id="node15" class="node"><title>\\ControllerBase</title>
<polygon fill="none" stroke="black" points="380.582,-484 269.582,-484 269.582,-448 380.582,-448 380.582,-484"/>
<text text-anchor="middle" x="325.082" y="-463.2" font-family="Courier,monospace" font-size="11.00">ControllerBase</text>
</g>
<!-- \\Phalcon\\Mvc\\Controller -->
<g id="node25" class="node"><title>\\Phalcon\\Mvc\\Controller</title>
<ellipse fill="none" stroke="black" cx="98.7912" cy="-474" rx="98.5829" ry="18"/>
<text text-anchor="middle" x="98.7912" y="-470.3" font-family="Times,serif" font-size="14.00" fill="gray">\Phalcon\Mvc\Controller</text>
</g>
<!-- \\ControllerBase&#45;&gt;\\Phalcon\\Mvc\\Controller -->
<g id="edge1" class="edge"><title>\\ControllerBase&#45;&gt;\\Phalcon\\Mvc\\Controller</title>
<path fill="none" stroke="black" d="M269.501,-467.947C250.273,-468.633 227.947,-469.429 205.93,-470.214"/>
<polygon fill="none" stroke="black" points="205.717,-466.72 195.848,-470.574 205.967,-473.715 205.717,-466.72"/>
</g>
<!-- \\RegionsController -->
<g id="node16" class="node"><title>\\RegionsController</title>
<polygon fill="none" stroke="black" points="583.582,-484 452.582,-484 452.582,-448 583.582,-448 583.582,-484"/>
<text text-anchor="middle" x="518.082" y="-463.2" font-family="Courier,monospace" font-size="11.00">RegionsController</text>
</g>
<!-- \\RegionsController&#45;&gt;\\ControllerBase -->
<g id="edge2" class="edge"><title>\\RegionsController&#45;&gt;\\ControllerBase</title>
<path fill="none" stroke="black" d="M452.419,-466C432.604,-466 410.806,-466 390.977,-466"/>
<polygon fill="none" stroke="black" points="390.807,-462.5 380.807,-466 390.807,-469.5 390.807,-462.5"/>
</g>
<!-- \\CountryController -->
<g id="node17" class="node"><title>\\CountryController</title>
<polygon fill="none" stroke="black" points="583.582,-430 452.582,-430 452.582,-394 583.582,-394 583.582,-430"/>
<text text-anchor="middle" x="518.082" y="-409.2" font-family="Courier,monospace" font-size="11.00">CountryController</text>
</g>
<!-- \\CountryController&#45;&gt;\\ControllerBase -->
<g id="edge4" class="edge"><title>\\CountryController&#45;&gt;\\ControllerBase</title>
<path fill="none" stroke="black" d="M453.217,-430.056C432.993,-435.774 410.635,-442.095 390.381,-447.821"/>
<polygon fill="none" stroke="black" points="389.297,-444.491 380.626,-450.579 391.201,-451.227 389.297,-444.491"/>
</g>
<!-- \\IndexController -->
<g id="node18" class="node"><title>\\IndexController</title>
<polygon fill="none" stroke="black" points="577.082,-376 459.082,-376 459.082,-340 577.082,-340 577.082,-376"/>
<text text-anchor="middle" x="518.082" y="-355.2" font-family="Courier,monospace" font-size="11.00">IndexController</text>
</g>
<!-- \\IndexController&#45;&gt;\\ControllerBase -->
<g id="edge5" class="edge"><title>\\IndexController&#45;&gt;\\ControllerBase</title>
<path fill="none" stroke="black" d="M463.217,-376.001C456.807,-378.741 450.46,-381.751 444.582,-385 413.23,-402.331 410.307,-414.004 380.582,-434 376.311,-436.874 371.774,-439.769 367.213,-442.581"/>
<polygon fill="none" stroke="black" points="365.224,-439.693 358.475,-447.86 368.844,-445.685 365.224,-439.693"/>
</g>
<!-- \\Candidates -->
<g id="node19" class="node"><title>\\Candidates</title>
<polygon fill="none" stroke="black" points="560.082,-322 476.082,-322 476.082,-286 560.082,-286 560.082,-322"/>
<text text-anchor="middle" x="518.082" y="-301.2" font-family="Courier,monospace" font-size="11.00">Candidates</text>
</g>
<!-- \\Cities -->
<g id="node20" class="node"><title>\\Cities</title>
<polygon fill="none" stroke="black" points="546.582,-268 489.582,-268 489.582,-232 546.582,-232 546.582,-268"/>
<text text-anchor="middle" x="518.082" y="-247.2" font-family="Courier,monospace" font-size="11.00">Cities</text>
</g>
<!-- \\Dmas -->
<g id="node21" class="node"><title>\\Dmas</title>
<polygon fill="none" stroke="black" points="545.082,-214 491.082,-214 491.082,-178 545.082,-178 545.082,-214"/>
<text text-anchor="middle" x="518.082" y="-193.2" font-family="Courier,monospace" font-size="11.00">Dmas</text>
</g>
<!-- \\VotersController -->
<g id="node22" class="node"><title>\\VotersController</title>
<polygon fill="none" stroke="black" points="580.582,-160 455.582,-160 455.582,-124 580.582,-124 580.582,-160"/>
<text text-anchor="middle" x="518.082" y="-139.2" font-family="Courier,monospace" font-size="11.00">VotersController</text>
</g>
<!-- \\VotersController&#45;&gt;\\ControllerBase -->
<g id="edge8" class="edge"><title>\\VotersController&#45;&gt;\\ControllerBase</title>
<path fill="none" stroke="black" d="M455.252,-159.761C451.324,-162.424 447.702,-165.483 444.582,-169 364.177,-259.64 452.788,-336.701 380.582,-434 378.588,-436.687 376.295,-439.189 373.804,-441.51"/>
<polygon fill="none" stroke="black" points="371.418,-438.938 365.831,-447.94 375.812,-444.387 371.418,-438.938"/>
</g>
<!-- \\Regions -->
<g id="node23" class="node"><title>\\Regions</title>
<polygon fill="none" stroke="black" points="550.082,-106 486.082,-106 486.082,-70 550.082,-70 550.082,-106"/>
<text text-anchor="middle" x="518.082" y="-85.2" font-family="Courier,monospace" font-size="11.00">Regions</text>
</g>
<!-- \\Countries -->
<g id="node24" class="node"><title>\\Countries</title>
<polygon fill="none" stroke="black" points="556.582,-52 479.582,-52 479.582,-16 556.582,-16 556.582,-52"/>
<text text-anchor="middle" x="518.082" y="-31.2" font-family="Courier,monospace" font-size="11.00">Countries</text>
</g>
</g>
</svg>
